<?xml version="1.0" standalone="no"?>
<!DOCTYPE svg PUBLIC "-//W3C//DTD SVG 20010904//EN"
 "http://www.w3.org/TR/2001/REC-SVG-20010904/DTD/svg10.dtd">
<svg version="1.0" xmlns="http://www.w3.org/2000/svg"
 width="256.000000pt" height="256.000000pt" viewBox="0 0 256.000000 256.000000"
 preserveAspectRatio="xMidYMid meet">

<g transform="translate(0.000000,256.000000) scale(0.100000,-0.100000)"
fill="#000000" stroke="none">
<path d="M1193 2550 c-41 -9 -103 -38 -134 -62 -36 -30 -81 -106 -103 -178
-27 -83 -44 -217 -49 -378 l-3 -103 18 35 c10 19 31 45 48 58 l30 24 -20 39
c-36 70 -22 184 27 227 73 66 164 -7 166 -131 l0 -56 54 -1 53 -2 0 55 c0 89
35 146 96 159 35 7 76 -21 100 -68 21 -40 21 -133 0 -181 l-15 -38 39 -39 c22
-22 40 -46 40 -52 0 -7 3 -23 6 -34 4 -16 -4 -33 -30 -62 l-36 -39 39 -84
c122 -267 176 -498 188 -808 5 -148 9 -179 27 -214 35 -69 63 -82 170 -82 84
0 96 3 133 27 25 17 49 45 64 75 22 45 24 59 24 213 -1 126 -5 180 -19 230
-44 161 -110 284 -242 452 -152 193 -147 181 -161 402 -18 286 -57 411 -162
517 -40 40 -73 62 -116 78 -67 25 -169 35 -232 21z"/>
<path d="M1039 2113 c-14 -16 -20 -125 -8 -138 4 -3 23 2 43 11 33 16 36 21
36 59 0 67 -40 106 -71 68z"/>
<path d="M1360 2115 c-7 -9 -15 -38 -18 -65 -4 -48 -4 -49 33 -64 20 -9 41
-13 46 -10 5 3 9 29 9 57 0 78 -38 121 -70 82z"/>
<path d="M897 1800 c-3 -8 -13 -40 -23 -70 -9 -30 -45 -112 -80 -181 -35 -70
-81 -170 -103 -224 -44 -105 -134 -377 -145 -437 l-7 -36 51 -4 c48 -3 51 -1
56 22 18 97 138 424 204 560 42 85 87 181 100 212 l24 58 -22 22 c-11 13 -28
39 -36 58 -10 23 -16 30 -19 20z"/>
<path d="M1530 279 c-102 -43 -209 -61 -355 -63 l-130 -1 -1 -51 c-1 -28 -7
-61 -14 -73 -6 -13 -10 -24 -8 -26 2 -2 37 6 78 17 59 16 120 22 290 27 l215
6 -5 95 -5 96 -65 -27z"/>
</g>
</svg>
